<mxfile host="app.diagrams.net" modified="2023-12-09T20:17:00.001Z" agent="Mozilla/5.0 (Windows NT 10.0; Win64; x64) AppleWebKit/537.36 (KHTML, like Gecko) Chrome/116.0.5845.686 YaBrowser/23.9.5.686 Yowser/2.5 Safari/537.36" etag="mAr-oGGxBk__YUKRvrG5" version="22.1.7" type="device">
  <diagram id="RIsx4OWrCgGug_Piqi56" name="Страница — 1">
    <mxGraphModel dx="1524" dy="886" grid="1" gridSize="10" guides="1" tooltips="1" connect="1" arrows="1" fold="1" page="1" pageScale="1" pageWidth="827" pageHeight="1169" math="0" shadow="0">
      <root>
        <mxCell id="0" />
        <mxCell id="1" parent="0" />
        <mxCell id="4a9bZZS92-BhcnEdYSsW-15" value="" style="ellipse;fillColor=strokeColor;html=1;" parent="1" vertex="1">
          <mxGeometry x="371.5" y="100" width="15" height="15" as="geometry" />
        </mxCell>
        <mxCell id="4a9bZZS92-BhcnEdYSsW-21" value="Пользователь" style="text;html=1;strokeColor=default;fillColor=none;align=center;verticalAlign=middle;whiteSpace=wrap;rounded=0;" parent="1" vertex="1">
          <mxGeometry x="80" y="40" width="150" height="40" as="geometry" />
        </mxCell>
        <mxCell id="4a9bZZS92-BhcnEdYSsW-22" value="Система" style="text;html=1;strokeColor=default;fillColor=none;align=center;verticalAlign=middle;whiteSpace=wrap;rounded=0;" parent="1" vertex="1">
          <mxGeometry x="230" y="40" width="250" height="40" as="geometry" />
        </mxCell>
        <mxCell id="4a9bZZS92-BhcnEdYSsW-24" value="" style="endArrow=classic;html=1;rounded=0;exitX=0.5;exitY=1;exitDx=0;exitDy=0;" parent="1" source="4a9bZZS92-BhcnEdYSsW-15" edge="1">
          <mxGeometry width="50" height="50" relative="1" as="geometry">
            <mxPoint x="339" y="350" as="sourcePoint" />
            <mxPoint x="379" y="160" as="targetPoint" />
          </mxGeometry>
        </mxCell>
        <mxCell id="4a9bZZS92-BhcnEdYSsW-26" value="Вывести поиск с выбором фильтров для поиска" style="text;html=1;strokeColor=default;fillColor=none;align=center;verticalAlign=middle;whiteSpace=wrap;rounded=1;" parent="1" vertex="1">
          <mxGeometry x="318.5" y="160" width="121" height="50" as="geometry" />
        </mxCell>
        <mxCell id="4a9bZZS92-BhcnEdYSsW-27" value="" style="endArrow=classic;html=1;rounded=0;exitX=0;exitY=0.5;exitDx=0;exitDy=0;entryX=1;entryY=0.5;entryDx=0;entryDy=0;" parent="1" source="4a9bZZS92-BhcnEdYSsW-26" target="4a9bZZS92-BhcnEdYSsW-28" edge="1">
          <mxGeometry width="50" height="50" relative="1" as="geometry">
            <mxPoint x="320" y="350" as="sourcePoint" />
            <mxPoint x="240" y="185" as="targetPoint" />
          </mxGeometry>
        </mxCell>
        <mxCell id="4a9bZZS92-BhcnEdYSsW-28" value="Заполнить фильтры и начать поиск" style="text;html=1;strokeColor=default;fillColor=none;align=center;verticalAlign=middle;whiteSpace=wrap;rounded=1;" parent="1" vertex="1">
          <mxGeometry x="90" y="160" width="121" height="50" as="geometry" />
        </mxCell>
        <mxCell id="4a9bZZS92-BhcnEdYSsW-29" value="" style="endArrow=classic;html=1;rounded=0;exitX=0.5;exitY=1;exitDx=0;exitDy=0;entryX=0;entryY=0.75;entryDx=0;entryDy=0;edgeStyle=orthogonalEdgeStyle;" parent="1" source="4a9bZZS92-BhcnEdYSsW-28" target="4a9bZZS92-BhcnEdYSsW-30" edge="1">
          <mxGeometry width="50" height="50" relative="1" as="geometry">
            <mxPoint x="310" y="195" as="sourcePoint" />
            <mxPoint x="270" y="280" as="targetPoint" />
          </mxGeometry>
        </mxCell>
        <mxCell id="4a9bZZS92-BhcnEdYSsW-30" value="Проверить фильтры на корректное значение" style="text;html=1;strokeColor=default;fillColor=none;align=center;verticalAlign=middle;whiteSpace=wrap;rounded=1;" parent="1" vertex="1">
          <mxGeometry x="318.5" y="250" width="121" height="50" as="geometry" />
        </mxCell>
        <mxCell id="4a9bZZS92-BhcnEdYSsW-31" value="" style="endArrow=classic;html=1;rounded=0;exitX=0.5;exitY=1;exitDx=0;exitDy=0;entryX=0.5;entryY=0;entryDx=0;entryDy=0;" parent="1" source="4a9bZZS92-BhcnEdYSsW-30" target="4a9bZZS92-BhcnEdYSsW-32" edge="1">
          <mxGeometry width="50" height="50" relative="1" as="geometry">
            <mxPoint x="383" y="450" as="sourcePoint" />
            <mxPoint x="379" y="350" as="targetPoint" />
          </mxGeometry>
        </mxCell>
        <mxCell id="4a9bZZS92-BhcnEdYSsW-35" style="edgeStyle=orthogonalEdgeStyle;rounded=0;orthogonalLoop=1;jettySize=auto;html=1;exitX=1;exitY=0.5;exitDx=0;exitDy=0;entryX=0.5;entryY=0;entryDx=0;entryDy=0;" parent="1" source="4a9bZZS92-BhcnEdYSsW-32" edge="1">
          <mxGeometry relative="1" as="geometry">
            <mxPoint x="381.5" y="552" as="targetPoint" />
            <Array as="points">
              <mxPoint x="430" y="363" />
              <mxPoint x="430" y="530" />
              <mxPoint x="382" y="530" />
            </Array>
          </mxGeometry>
        </mxCell>
        <mxCell id="4a9bZZS92-BhcnEdYSsW-36" style="edgeStyle=orthogonalEdgeStyle;rounded=0;orthogonalLoop=1;jettySize=auto;html=1;exitX=0.5;exitY=1;exitDx=0;exitDy=0;entryX=0.5;entryY=0;entryDx=0;entryDy=0;" parent="1" source="4a9bZZS92-BhcnEdYSsW-55" target="4a9bZZS92-BhcnEdYSsW-40" edge="1">
          <mxGeometry relative="1" as="geometry">
            <mxPoint x="329" y="420" as="targetPoint" />
          </mxGeometry>
        </mxCell>
        <mxCell id="4a9bZZS92-BhcnEdYSsW-32" value="" style="rhombus;whiteSpace=wrap;html=1;" parent="1" vertex="1">
          <mxGeometry x="366.5" y="350" width="25" height="25" as="geometry" />
        </mxCell>
        <mxCell id="4a9bZZS92-BhcnEdYSsW-37" value="Верно?" style="text;html=1;strokeColor=none;fillColor=none;align=center;verticalAlign=middle;whiteSpace=wrap;rounded=0;" parent="1" vertex="1">
          <mxGeometry x="379.5" y="330" width="60" height="30" as="geometry" />
        </mxCell>
        <mxCell id="4a9bZZS92-BhcnEdYSsW-38" value="Нет" style="text;html=1;strokeColor=none;fillColor=none;align=center;verticalAlign=middle;whiteSpace=wrap;rounded=0;" parent="1" vertex="1">
          <mxGeometry x="312" y="367" width="60" height="30" as="geometry" />
        </mxCell>
        <mxCell id="4a9bZZS92-BhcnEdYSsW-39" value="Да" style="text;html=1;strokeColor=none;fillColor=none;align=center;verticalAlign=middle;whiteSpace=wrap;rounded=0;" parent="1" vertex="1">
          <mxGeometry x="410" y="380" width="60" height="30" as="geometry" />
        </mxCell>
        <mxCell id="4a9bZZS92-BhcnEdYSsW-40" value="" style="ellipse;html=1;shape=endState;fillColor=strokeColor;" parent="1" vertex="1">
          <mxGeometry x="345.5" y="480" width="30" height="30" as="geometry" />
        </mxCell>
        <mxCell id="4a9bZZS92-BhcnEdYSsW-41" value="" style="endArrow=none;dashed=1;html=1;dashPattern=1 3;strokeWidth=2;rounded=0;entryX=0;entryY=1;entryDx=0;entryDy=0;" parent="1" target="4a9bZZS92-BhcnEdYSsW-22" edge="1">
          <mxGeometry width="50" height="50" relative="1" as="geometry">
            <mxPoint x="230" y="860" as="sourcePoint" />
            <mxPoint x="370" y="300" as="targetPoint" />
          </mxGeometry>
        </mxCell>
        <mxCell id="4a9bZZS92-BhcnEdYSsW-43" value="" style="endArrow=none;html=1;rounded=0;entryX=0;entryY=1;entryDx=0;entryDy=0;" parent="1" target="4a9bZZS92-BhcnEdYSsW-21" edge="1">
          <mxGeometry width="50" height="50" relative="1" as="geometry">
            <mxPoint x="80" y="860" as="sourcePoint" />
            <mxPoint x="370" y="300" as="targetPoint" />
          </mxGeometry>
        </mxCell>
        <mxCell id="4a9bZZS92-BhcnEdYSsW-46" value="Поиск пользователей" style="text;html=1;strokeColor=default;fillColor=none;align=center;verticalAlign=middle;whiteSpace=wrap;rounded=1;" parent="1" vertex="1">
          <mxGeometry x="321" y="552" width="121" height="50" as="geometry" />
        </mxCell>
        <mxCell id="4a9bZZS92-BhcnEdYSsW-47" value="" style="endArrow=classic;html=1;rounded=0;exitX=0.5;exitY=1;exitDx=0;exitDy=0;entryX=0.5;entryY=0;entryDx=0;entryDy=0;" parent="1" source="4a9bZZS92-BhcnEdYSsW-46" target="4a9bZZS92-BhcnEdYSsW-72" edge="1">
          <mxGeometry width="50" height="50" relative="1" as="geometry">
            <mxPoint x="585.5" y="622" as="sourcePoint" />
            <mxPoint x="382" y="644" as="targetPoint" />
          </mxGeometry>
        </mxCell>
        <mxCell id="4a9bZZS92-BhcnEdYSsW-56" value="" style="edgeStyle=orthogonalEdgeStyle;rounded=0;orthogonalLoop=1;jettySize=auto;html=1;exitX=0;exitY=0.5;exitDx=0;exitDy=0;entryX=0.5;entryY=0;entryDx=0;entryDy=0;" parent="1" source="4a9bZZS92-BhcnEdYSsW-32" target="4a9bZZS92-BhcnEdYSsW-55" edge="1">
          <mxGeometry relative="1" as="geometry">
            <mxPoint x="325" y="480" as="targetPoint" />
            <mxPoint x="367" y="363" as="sourcePoint" />
          </mxGeometry>
        </mxCell>
        <mxCell id="4a9bZZS92-BhcnEdYSsW-55" value="Вывод ошибки заполнения формы" style="text;html=1;strokeColor=default;fillColor=none;align=center;verticalAlign=middle;whiteSpace=wrap;rounded=1;" parent="1" vertex="1">
          <mxGeometry x="300" y="401" width="121" height="50" as="geometry" />
        </mxCell>
        <mxCell id="4a9bZZS92-BhcnEdYSsW-60" value="" style="endArrow=none;html=1;rounded=0;entryX=0;entryY=1;entryDx=0;entryDy=0;" parent="1" edge="1">
          <mxGeometry width="50" height="50" relative="1" as="geometry">
            <mxPoint x="480" y="860" as="sourcePoint" />
            <mxPoint x="480" y="80" as="targetPoint" />
          </mxGeometry>
        </mxCell>
        <mxCell id="4a9bZZS92-BhcnEdYSsW-72" value="Вывод результатов&amp;nbsp;поиска" style="text;html=1;strokeColor=default;fillColor=none;align=center;verticalAlign=middle;whiteSpace=wrap;rounded=1;" parent="1" vertex="1">
          <mxGeometry x="316.5" y="740" width="130" height="50" as="geometry" />
        </mxCell>
        <mxCell id="4a9bZZS92-BhcnEdYSsW-95" value="" style="endArrow=none;html=1;rounded=0;" parent="1" edge="1">
          <mxGeometry width="50" height="50" relative="1" as="geometry">
            <mxPoint x="81.5" y="860" as="sourcePoint" />
            <mxPoint x="480" y="860" as="targetPoint" />
          </mxGeometry>
        </mxCell>
        <mxCell id="01D0WKEzNjMwUzCxD3XC-1" value="" style="ellipse;html=1;shape=endState;fillColor=strokeColor;" parent="1" vertex="1">
          <mxGeometry x="366.5" y="820" width="30" height="30" as="geometry" />
        </mxCell>
        <mxCell id="01D0WKEzNjMwUzCxD3XC-2" style="edgeStyle=orthogonalEdgeStyle;rounded=0;orthogonalLoop=1;jettySize=auto;html=1;entryX=0.5;entryY=0;entryDx=0;entryDy=0;exitX=0.5;exitY=1;exitDx=0;exitDy=0;" parent="1" source="4a9bZZS92-BhcnEdYSsW-72" target="01D0WKEzNjMwUzCxD3XC-1" edge="1">
          <mxGeometry relative="1" as="geometry">
            <mxPoint x="340" y="815" as="sourcePoint" />
            <mxPoint x="329" y="735" as="targetPoint" />
          </mxGeometry>
        </mxCell>
        <mxCell id="01D0WKEzNjMwUzCxD3XC-4" value="Поиск единомышленников" style="shape=umlFrame;whiteSpace=wrap;html=1;pointerEvents=0;width=180;height=30;" parent="1" vertex="1">
          <mxGeometry x="40" width="480" height="900" as="geometry" />
        </mxCell>
        <mxCell id="Qe77t7EuqVe-9lFEcpm--1" value="+ entries: &quot;Пользователь в базе данных&quot;[]" style="rounded=0;whiteSpace=wrap;html=1;" parent="1" vertex="1">
          <mxGeometry x="240" y="640" width="120" height="60" as="geometry" />
        </mxCell>
        <mxCell id="Qe77t7EuqVe-9lFEcpm--2" value="" style="rounded=0;whiteSpace=wrap;html=1;" parent="1" vertex="1">
          <mxGeometry x="340" y="602" width="20" height="10" as="geometry" />
        </mxCell>
        <mxCell id="Qe77t7EuqVe-9lFEcpm--3" value="" style="rounded=0;whiteSpace=wrap;html=1;" parent="1" vertex="1">
          <mxGeometry x="340" y="730" width="20" height="10" as="geometry" />
        </mxCell>
        <mxCell id="Qe77t7EuqVe-9lFEcpm--4" value="" style="endArrow=classic;html=1;rounded=0;exitX=0.5;exitY=1;exitDx=0;exitDy=0;entryX=1;entryY=0.25;entryDx=0;entryDy=0;edgeStyle=orthogonalEdgeStyle;fillColor=#0050ef;strokeColor=#001DBC;" parent="1" source="Qe77t7EuqVe-9lFEcpm--2" target="Qe77t7EuqVe-9lFEcpm--1" edge="1">
          <mxGeometry width="50" height="50" relative="1" as="geometry">
            <mxPoint x="240" y="520" as="sourcePoint" />
            <mxPoint x="290" y="470" as="targetPoint" />
          </mxGeometry>
        </mxCell>
        <mxCell id="Qe77t7EuqVe-9lFEcpm--5" value="" style="endArrow=classic;html=1;rounded=0;exitX=1;exitY=0.75;exitDx=0;exitDy=0;entryX=0.5;entryY=0;entryDx=0;entryDy=0;edgeStyle=orthogonalEdgeStyle;fillColor=#0050ef;strokeColor=#001DBC;" parent="1" source="Qe77t7EuqVe-9lFEcpm--1" target="Qe77t7EuqVe-9lFEcpm--3" edge="1">
          <mxGeometry width="50" height="50" relative="1" as="geometry">
            <mxPoint x="360" y="622" as="sourcePoint" />
            <mxPoint x="240" y="655" as="targetPoint" />
          </mxGeometry>
        </mxCell>
      </root>
    </mxGraphModel>
  </diagram>
</mxfile>
